<?xml version="1.0" encoding="UTF-8" standalone="no"?>
<svg width="316px" height="423px" viewBox="0 0 316 423" version="1.1" xmlns="http://www.w3.org/2000/svg" xmlns:xlink="http://www.w3.org/1999/xlink">
    <!-- Generator: Sketch 43.2 (39069) - http://www.bohemiancoding.com/sketch -->
    <title>Artboard</title>
    <desc>Created with Sketch.</desc>
    <defs></defs>
    <g id="Page-1" stroke="none" stroke-width="1" fill="none" fill-rule="evenodd">
        <g id="Artboard">
            <polygon id="Rectangle-7" fill="#50E3C2" points="41 101 101 81 101 161 41 181"></polygon>
            <polygon id="Rectangle-8" fill="#1AC0B8" points="61 41 101 81 41 101 1 61"></polygon>
            <polygon id="Rectangle-7" fill="#1AC0B8" points="120 261 180 241 180 401 120 421"></polygon>
            <path d="M141,201 L181,241 L121,261 L81,221 L141,201 Z M81,61 L141,41 L141,201 L81,221 L81,61 Z M101,1 L141,41 L81,61 L41,21 L101,1 Z M161,301 L221,281 L221,361 L161,381 L161,301 Z M181,241 L221,281 L161,301 L121,261 L181,241 Z" id="Combined-Shape" fill="#1AC0B8"></path>
            <path d="M1,61 L41,101 L41,181 L1,141 L1,61 Z M81,221 L121,261 L121,421 L81,381 L81,221 Z M41,21 L81,61 L81,221 L41,181 L41,21 Z M121,261 L161,301 L161,381 L121,341 L121,261 Z" id="Combined-Shape" fill="#1A66B8"></path>
            <path d="M180.192,68.616 C179.935999,68.3599987 179.808,68.0186688 179.808,67.592 L179.808,28.04 L167.136,28.04 C166.709331,28.04 166.368001,27.9120013 166.112,27.656 C165.855999,27.3999987 165.728,27.0586688 165.728,26.632 L165.728,25.672 C165.728,25.2453312 165.855999,24.8933347 166.112,24.616 C166.368001,24.3386653 166.709331,24.2 167.136,24.2 L196.448,24.2 C196.917336,24.2 197.279999,24.3279987 197.536,24.584 C197.792001,24.8400013 197.92,25.2026643 197.92,25.672 L197.92,26.632 C197.92,27.0586688 197.781335,27.3999987 197.504,27.656 C197.226665,27.9120013 196.874669,28.04 196.448,28.04 L183.84,28.04 L183.84,67.592 C183.84,68.0186688 183.701335,68.3599987 183.424,68.616 C183.146665,68.8720013 182.794669,69 182.368,69 L181.216,69 C180.789331,69 180.448001,68.8720013 180.192,68.616 Z M202.538667,68.616 C202.282666,68.3599987 202.154667,68.0186688 202.154667,67.592 L202.154667,24.968 C202.154667,24.5413312 202.282666,24.2000013 202.538667,23.944 C202.794668,23.6879987 203.135998,23.56 203.562667,23.56 L204.650667,23.56 C205.077336,23.56 205.418666,23.6879987 205.674667,23.944 C205.930668,24.2000013 206.058667,24.5413312 206.058667,24.968 L206.058667,40.136 C207.338673,38.4719917 208.799992,37.2133376 210.442667,36.36 C212.085342,35.5066624 214.207987,35.08 216.810667,35.08 C220.992021,35.08 224.213322,36.41332 226.474667,39.08 C228.736012,41.74668 229.866667,45.1919789 229.866667,49.416 L229.866667,67.592 C229.866667,68.0186688 229.738668,68.3599987 229.482667,68.616 C229.226666,68.8720013 228.885336,69 228.458667,69 L227.370667,69 C226.943998,69 226.602668,68.8720013 226.346667,68.616 C226.090666,68.3599987 225.962667,68.0186688 225.962667,67.592 L225.962667,49.736 C225.962667,46.2799827 225.120009,43.5920096 223.434667,41.672 C221.749325,39.7519904 219.328016,38.792 216.170667,38.792 C213.098652,38.792 210.645343,39.762657 208.810667,41.704 C206.975991,43.645343 206.058667,46.3226496 206.058667,49.736 L206.058667,67.592 C206.058667,68.0186688 205.930668,68.3599987 205.674667,68.616 C205.418666,68.8720013 205.077336,69 204.650667,69 L203.562667,69 C203.135998,69 202.794668,68.8720013 202.538667,68.616 Z M241.141334,65.64 C238.666655,62.97332 237.258669,59.4000224 236.917334,54.92 L236.853334,52.36 L236.917334,49.8 C237.258669,45.3626445 238.655988,41.8000134 241.109334,39.112 C243.56268,36.4239866 246.837314,35.08 250.933334,35.08 C255.37069,35.08 258.837322,36.5519853 261.333334,39.496 C263.829346,42.4400147 265.077334,46.4719744 265.077334,51.592 L265.077334,52.552 C265.077334,52.9786688 264.938669,53.3199987 264.661334,53.576 C264.383999,53.8320013 264.032003,53.96 263.605334,53.96 L240.821334,53.96 L240.821334,54.6 C240.906668,56.6053434 241.36533,58.4719914 242.197334,60.2 C243.029338,61.9280086 244.191993,63.3146614 245.685334,64.36 C247.178675,65.4053386 248.927991,65.928 250.933334,65.928 C253.280012,65.928 255.189327,65.4693379 256.661334,64.552 C258.133341,63.6346621 259.189331,62.7066714 259.829334,61.768 C260.213336,61.2559974 260.501333,60.9360006 260.693334,60.808 C260.885335,60.6799994 261.237331,60.616 261.749334,60.616 L262.773334,60.616 C263.157336,60.616 263.477333,60.7226656 263.733334,60.936 C263.989335,61.1493344 264.117334,61.426665 264.117334,61.768 C264.117334,62.6640045 263.552006,63.741327 262.421334,65 C261.290662,66.258673 259.722677,67.3466621 257.717334,68.264 C255.711991,69.1813379 253.45068,69.64 250.933334,69.64 C246.87998,69.64 243.616013,68.30668 241.141334,65.64 Z M261.173334,50.376 L261.173334,50.12 C261.173334,46.8346502 260.245343,44.125344 258.389334,41.992 C256.533325,39.858656 254.048016,38.792 250.933334,38.792 C247.818652,38.792 245.354676,39.858656 243.541334,41.992 C241.727992,44.125344 240.821334,46.8346502 240.821334,50.12 L240.821334,50.376 L261.173334,50.376 Z M170.4,126.616 C170.143999,126.359999 170.016,126.018669 170.016,125.592 L170.016,83.672 C170.016,83.2453312 170.143999,82.8933347 170.4,82.616 C170.656001,82.3386653 170.997331,82.2 171.424,82.2 L185.056,82.2 C189.493356,82.2 193.002654,82.8506602 195.584,84.152 C198.165346,85.4533398 199.999995,87.3626541 201.088,89.88 C202.176005,92.3973459 202.762666,95.5973139 202.848,99.48 C202.890667,100.760006 202.912,102.445323 202.912,104.536 C202.912,106.669344 202.890667,108.375994 202.848,109.656 C202.762666,113.75202 202.176005,117.047988 201.088,119.544 C199.999995,122.040012 198.197346,123.90666 195.68,125.144 C193.162654,126.38134 189.728022,127 185.376,127 L171.424,127 C170.997331,127 170.656001,126.872001 170.4,126.616 Z M185.056,123.16 C188.46935,123.16 191.157324,122.701338 193.12,121.784 C195.082676,120.866662 196.501329,119.41601 197.376,117.432 C198.250671,115.44799 198.730666,112.74935 198.816,109.336 C198.858667,108.055994 198.88,106.45601 198.88,104.536 C198.88,102.658657 198.858667,101.080006 198.816,99.8 C198.730666,95.0213094 197.610677,91.5333443 195.456,89.336 C193.301323,87.1386557 189.728025,86.04 184.736,86.04 L174.048,86.04 L174.048,123.16 L185.056,123.16 Z M214.442667,126.36 C212.693325,125.506662 211.296006,124.354674 210.250667,122.904 C209.205328,121.453326 208.682667,119.853342 208.682667,118.104 C208.682667,115.287986 209.823989,112.984009 212.106667,111.192 C214.389345,109.399991 217.471981,108.248003 221.354667,107.736 L231.466667,106.328 L231.466667,104.088 C231.466667,101.741322 230.752007,99.938673 229.322667,98.68 C227.893327,97.421327 225.706682,96.792 222.762667,96.792 C220.586656,96.792 218.805341,97.2186624 217.418667,98.072 C216.031993,98.9253376 215.146669,99.9493274 214.762667,101.144 C214.591999,101.656003 214.389335,102.007999 214.154667,102.2 C213.919999,102.392001 213.610669,102.488 213.226667,102.488 L212.330667,102.488 C211.946665,102.488 211.616002,102.349335 211.338667,102.072 C211.061332,101.794665 210.922667,101.464002 210.922667,101.08 C210.922667,100.141329 211.349329,99.042673 212.202667,97.784 C213.056005,96.525327 214.378658,95.4266714 216.170667,94.488 C217.962676,93.5493286 220.159987,93.08 222.762667,93.08 C227.328023,93.08 230.570657,94.1679891 232.490667,96.344 C234.410677,98.5200109 235.370667,101.165318 235.370667,104.28 L235.370667,125.592 C235.370667,126.018669 235.242668,126.359999 234.986667,126.616 C234.730666,126.872001 234.389336,127 233.962667,127 L232.874667,127 C232.447998,127 232.106668,126.872001 231.850667,126.616 C231.594666,126.359999 231.466667,126.018669 231.466667,125.592 L231.466667,122.584 C230.527996,123.992007 229.152009,125.186662 227.338667,126.168 C225.525325,127.149338 223.125349,127.64 220.138667,127.64 C218.090657,127.64 216.192009,127.213338 214.442667,126.36 Z M228.458667,120.856 C230.46401,118.80799 231.466667,115.864019 231.466667,112.024 L231.466667,109.848 L223.210667,111 C219.711983,111.469336 217.066676,112.279994 215.274667,113.432 C213.482658,114.584006 212.586667,116.034658 212.586667,117.784 C212.586667,119.746676 213.407992,121.261328 215.050667,122.328 C216.693342,123.394672 218.602656,123.928 220.778667,123.928 C223.893349,123.928 226.453324,122.90401 228.458667,120.856 Z M248.309334,124.152 C246.986661,122.253324 246.325334,119.640017 246.325334,116.312 L246.325334,97.432 L241.333334,97.432 C240.906665,97.432 240.565335,97.3040013 240.309334,97.048 C240.053333,96.7919987 239.925334,96.4506688 239.925334,96.024 L239.925334,95.128 C239.925334,94.7013312 240.053333,94.3600013 240.309334,94.104 C240.565335,93.8479987 240.906665,93.72 241.333334,93.72 L246.325334,93.72 L246.325334,82.968 C246.325334,82.5413312 246.453333,82.2000013 246.709334,81.944 C246.965335,81.6879987 247.306665,81.56 247.733334,81.56 L248.821334,81.56 C249.248003,81.56 249.589333,81.6879987 249.845334,81.944 C250.101335,82.2000013 250.229334,82.5413312 250.229334,82.968 L250.229334,93.72 L258.165334,93.72 C258.592003,93.72 258.933333,93.8479987 259.189334,94.104 C259.445335,94.3600013 259.573334,94.7013312 259.573334,95.128 L259.573334,96.024 C259.573334,96.4506688 259.445335,96.7919987 259.189334,97.048 C258.933333,97.3040013 258.592003,97.432 258.165334,97.432 L250.229334,97.432 L250.229334,116.056 C250.229334,118.445345 250.623997,120.247994 251.413334,121.464 C252.202671,122.680006 253.514658,123.288 255.349334,123.288 L258.805334,123.288 C259.232003,123.288 259.573333,123.415999 259.829334,123.672 C260.085335,123.928001 260.213334,124.269331 260.213334,124.696 L260.213334,125.592 C260.213334,126.018669 260.085335,126.359999 259.829334,126.616 C259.573333,126.872001 259.232003,127 258.805334,127 L255.029334,127 C251.871985,127 249.632007,126.050676 248.309334,124.152 Z M268.736001,126.36 C266.986659,125.506662 265.58934,124.354674 264.544001,122.904 C263.498662,121.453326 262.976001,119.853342 262.976001,118.104 C262.976001,115.287986 264.117323,112.984009 266.400001,111.192 C268.682679,109.399991 271.765315,108.248003 275.648001,107.736 L285.760001,106.328 L285.760001,104.088 C285.760001,101.741322 285.045341,99.938673 283.616001,98.68 C282.186661,97.421327 280.000016,96.792 277.056001,96.792 C274.87999,96.792 273.098675,97.2186624 271.712001,98.072 C270.325327,98.9253376 269.440003,99.9493274 269.056001,101.144 C268.885333,101.656003 268.682669,102.007999 268.448001,102.2 C268.213333,102.392001 267.904003,102.488 267.520001,102.488 L266.624001,102.488 C266.239999,102.488 265.909336,102.349335 265.632001,102.072 C265.354666,101.794665 265.216001,101.464002 265.216001,101.08 C265.216001,100.141329 265.642663,99.042673 266.496001,97.784 C267.349339,96.525327 268.671992,95.4266714 270.464001,94.488 C272.25601,93.5493286 274.453321,93.08 277.056001,93.08 C281.621357,93.08 284.863991,94.1679891 286.784001,96.344 C288.704011,98.5200109 289.664001,101.165318 289.664001,104.28 L289.664001,125.592 C289.664001,126.018669 289.536002,126.359999 289.280001,126.616 C289.024,126.872001 288.68267,127 288.256001,127 L287.168001,127 C286.741332,127 286.400002,126.872001 286.144001,126.616 C285.888,126.359999 285.760001,126.018669 285.760001,125.592 L285.760001,122.584 C284.82133,123.992007 283.445343,125.186662 281.632001,126.168 C279.818659,127.149338 277.418683,127.64 274.432001,127.64 C272.383991,127.64 270.485343,127.213338 268.736001,126.36 Z M282.752001,120.856 C284.757344,118.80799 285.760001,115.864019 285.760001,112.024 L285.760001,109.848 L277.504001,111 C274.005317,111.469336 271.36001,112.279994 269.568001,113.432 C267.775992,114.584006 266.880001,116.034658 266.880001,117.784 C266.880001,119.746676 267.701326,121.261328 269.344001,122.328 C270.986676,123.394672 272.89599,123.928 275.072001,123.928 C278.186683,123.928 280.746658,122.90401 282.752001,120.856 Z M170.4,184.616 C170.143999,184.359999 170.016,184.018669 170.016,183.592 L170.016,141.672 C170.016,141.245331 170.143999,140.893335 170.4,140.616 C170.656001,140.338665 170.997331,140.2 171.424,140.2 L186.976,140.2 C191.541356,140.2 195.135987,141.341322 197.76,143.624 C200.384013,145.906678 201.696,149.181312 201.696,153.448 C201.696,157.714688 200.384013,160.989322 197.76,163.272 C195.135987,165.554678 191.541356,166.696 186.976,166.696 L174.048,166.696 L174.048,183.592 C174.048,184.018669 173.909335,184.359999 173.632,184.616 C173.354665,184.872001 173.002669,185 172.576,185 L171.424,185 C170.997331,185 170.656001,184.872001 170.4,184.616 Z M186.656,162.856 C190.325352,162.856 193.077324,162.056008 194.912,160.456 C196.746676,158.855992 197.664,156.520015 197.664,153.448 C197.664,150.375985 196.746676,148.040008 194.912,146.44 C193.077324,144.839992 190.325352,144.04 186.656,144.04 L174.048,144.04 L174.048,162.856 L186.656,162.856 Z M208.490667,184.616 C208.234666,184.359999 208.106667,184.018669 208.106667,183.592 L208.106667,140.968 C208.106667,140.541331 208.234666,140.200001 208.490667,139.944 C208.746668,139.687999 209.087998,139.56 209.514667,139.56 L210.602667,139.56 C211.029336,139.56 211.370666,139.687999 211.626667,139.944 C211.882668,140.200001 212.010667,140.541331 212.010667,140.968 L212.010667,183.592 C212.010667,184.018669 211.882668,184.359999 211.626667,184.616 C211.370666,184.872001 211.029336,185 210.602667,185 L209.514667,185 C209.087998,185 208.746668,184.872001 208.490667,184.616 Z M224.373334,184.36 C222.623992,183.506662 221.226673,182.354674 220.181334,180.904 C219.135995,179.453326 218.613334,177.853342 218.613334,176.104 C218.613334,173.287986 219.754656,170.984009 222.037334,169.192 C224.320012,167.399991 227.402648,166.248003 231.285334,165.736 L241.397334,164.328 L241.397334,162.088 C241.397334,159.741322 240.682674,157.938673 239.253334,156.68 C237.823994,155.421327 235.637349,154.792 232.693334,154.792 C230.517323,154.792 228.736008,155.218662 227.349334,156.072 C225.96266,156.925338 225.077336,157.949327 224.693334,159.144 C224.522666,159.656003 224.320002,160.007999 224.085334,160.2 C223.850666,160.392001 223.541336,160.488 223.157334,160.488 L222.261334,160.488 C221.877332,160.488 221.546669,160.349335 221.269334,160.072 C220.991999,159.794665 220.853334,159.464002 220.853334,159.08 C220.853334,158.141329 221.279996,157.042673 222.133334,155.784 C222.986672,154.525327 224.309325,153.426671 226.101334,152.488 C227.893343,151.549329 230.090654,151.08 232.693334,151.08 C237.25869,151.08 240.501324,152.167989 242.421334,154.344 C244.341344,156.520011 245.301334,159.165318 245.301334,162.28 L245.301334,183.592 C245.301334,184.018669 245.173335,184.359999 244.917334,184.616 C244.661333,184.872001 244.320003,185 243.893334,185 L242.805334,185 C242.378665,185 242.037335,184.872001 241.781334,184.616 C241.525333,184.359999 241.397334,184.018669 241.397334,183.592 L241.397334,180.584 C240.458663,181.992007 239.082676,183.186662 237.269334,184.168 C235.455992,185.149338 233.056016,185.64 230.069334,185.64 C228.021324,185.64 226.122676,185.213338 224.373334,184.36 Z M238.389334,178.856 C240.394677,176.80799 241.397334,173.864019 241.397334,170.024 L241.397334,167.848 L233.141334,169 C229.64265,169.469336 226.997343,170.279994 225.205334,171.432 C223.413325,172.584006 222.517334,174.034658 222.517334,175.784 C222.517334,177.746676 223.338659,179.261328 224.981334,180.328 C226.624009,181.394672 228.533323,181.928 230.709334,181.928 C233.824016,181.928 236.383991,180.90401 238.389334,178.856 Z M256.384001,181.768 C253.951989,179.186654 252.672002,175.57069 252.544001,170.92 L252.480001,168.36 L252.544001,165.8 C252.672002,161.14931 253.951989,157.533346 256.384001,154.952 C258.816013,152.370654 262.250645,151.08 266.688001,151.08 C269.504015,151.08 271.903991,151.581328 273.888001,152.584 C275.872011,153.586672 277.354663,154.866659 278.336001,156.424 C279.317339,157.981341 279.850667,159.591992 279.936001,161.256 C279.978668,161.640002 279.850669,161.970665 279.552001,162.248 C279.253333,162.525335 278.912003,162.664 278.528001,162.664 L277.632001,162.664 C277.205332,162.664 276.896002,162.568001 276.704001,162.376 C276.512,162.183999 276.309335,161.832003 276.096001,161.32 C275.242663,158.973322 274.048009,157.298672 272.512001,156.296 C270.975993,155.293328 269.034679,154.792 266.688001,154.792 C263.615986,154.792 261.173343,155.719991 259.360001,157.576 C257.546659,159.432009 256.576002,162.279981 256.448001,166.12 L256.384001,168.36 L256.448001,170.6 C256.576002,174.440019 257.546659,177.287991 259.360001,179.144 C261.173343,181.000009 263.615986,181.928 266.688001,181.928 C269.034679,181.928 270.975993,181.426672 272.512001,180.424 C274.048009,179.421328 275.242663,177.746678 276.096001,175.4 C276.309335,174.887997 276.512,174.536001 276.704001,174.344 C276.896002,174.151999 277.205332,174.056 277.632001,174.056 L278.528001,174.056 C278.912003,174.056 279.253333,174.194665 279.552001,174.472 C279.850669,174.749335 279.978668,175.079998 279.936001,175.464 C279.850667,177.128008 279.317339,178.738659 278.336001,180.296 C277.354663,181.853341 275.872011,183.133328 273.888001,184.136 C271.903991,185.138672 269.504015,185.64 266.688001,185.64 C262.250645,185.64 258.816013,184.349346 256.384001,181.768 Z M289.610668,181.64 C287.135989,178.97332 285.728003,175.400022 285.386668,170.92 L285.322668,168.36 L285.386668,165.8 C285.728003,161.362644 287.125322,157.800013 289.578668,155.112 C292.032014,152.423987 295.306648,151.08 299.402668,151.08 C303.840024,151.08 307.306656,152.551985 309.802668,155.496 C312.29868,158.440015 313.546668,162.471974 313.546668,167.592 L313.546668,168.552 C313.546668,168.978669 313.408003,169.319999 313.130668,169.576 C312.853333,169.832001 312.501337,169.96 312.074668,169.96 L289.290668,169.96 L289.290668,170.6 C289.376002,172.605343 289.834664,174.471991 290.666668,176.2 C291.498672,177.928009 292.661327,179.314661 294.154668,180.36 C295.648009,181.405339 297.397325,181.928 299.402668,181.928 C301.749346,181.928 303.658661,181.469338 305.130668,180.552 C306.602675,179.634662 307.658665,178.706671 308.298668,177.768 C308.68267,177.255997 308.970667,176.936001 309.162668,176.808 C309.354669,176.679999 309.706665,176.616 310.218668,176.616 L311.242668,176.616 C311.62667,176.616 311.946667,176.722666 312.202668,176.936 C312.458669,177.149334 312.586668,177.426665 312.586668,177.768 C312.586668,178.664004 312.02134,179.741327 310.890668,181 C309.759996,182.258673 308.192011,183.346662 306.186668,184.264 C304.181325,185.181338 301.920014,185.64 299.402668,185.64 C295.349314,185.64 292.085347,184.30668 289.610668,181.64 Z M309.642668,166.376 L309.642668,166.12 C309.642668,162.83465 308.714677,160.125344 306.858668,157.992 C305.002659,155.858656 302.51735,154.792 299.402668,154.792 C296.287986,154.792 293.82401,155.858656 292.010668,157.992 C290.197326,160.125344 289.290668,162.83465 289.290668,166.12 L289.290668,166.376 L309.642668,166.376 Z" id="The-Data-Place" fill="#FFFFFF"></path>
        </g>
    </g>
</svg>